<?xml version="1.0" standalone="no"?>
<!DOCTYPE svg PUBLIC "-//W3C//DTD SVG 20010904//EN"
 "http://www.w3.org/TR/2001/REC-SVG-20010904/DTD/svg10.dtd">
<svg version="1.0" xmlns="http://www.w3.org/2000/svg"
 width="619.000000pt" height="403.000000pt" viewBox="0 0 619.000000 403.000000"
 preserveAspectRatio="xMidYMid meet">

<g transform="translate(0.000000,403.000000) scale(0.100000,-0.100000)"
fill="#FF385C" stroke="none">
<path d="M1874 2519 c-49 -55 -144 -163 -212 -240 l-122 -140 2 -202 3 -202
33 -3 32 -3 0 184 0 184 98 111 c53 61 138 156 187 212 l90 102 48 -53 c26
-29 46 -57 45 -61 -2 -4 -74 -84 -160 -178 l-158 -169 0 -161 0 -160 26 -10
c27 -11 584 -14 622 -4 22 6 22 7 22 210 l0 204 -37 42 c-21 24 -40 45 -43 48
-3 3 -81 92 -174 198 -124 141 -174 192 -191 192 -15 0 -48 -30 -111 -101z
m276 -176 c0 -5 48 -62 105 -128 l105 -120 -3 -145 -2 -145 -257 -3 -258 -2 0
115 0 115 51 52 c27 29 94 101 147 160 91 100 112 119 112 101z"/>
<path d="M2640 2000 l0 -260 50 0 49 0 3 103 3 102 55 3 c76 5 126 -12 145
-47 8 -16 18 -57 22 -92 l8 -64 51 -3 50 -3 -12 91 c-13 93 -33 140 -59 140
-23 0 -18 14 15 38 57 43 64 142 14 201 -35 42 -77 51 -246 51 l-148 0 0 -260z
m294 159 c21 -17 26 -29 26 -64 0 -64 -23 -77 -131 -73 l-84 3 -3 64 c-2 35
-1 70 2 77 4 10 27 14 84 14 65 0 84 -4 106 -21z"/>
<path d="M4060 2170 l0 -60 -30 0 c-27 0 -30 -3 -30 -30 0 -27 3 -30 30 -30
l30 0 0 -129 c0 -123 1 -131 24 -158 22 -25 31 -28 87 -28 l63 0 2 37 c2 36 1
37 -34 40 l-37 3 -3 117 -3 117 37 3 c33 3 37 6 39 31 1 25 -2 27 -37 27 l-38
0 0 60 0 60 -50 0 -50 0 0 -60z"/>
<path d="M3265 2108 c-138 -48 -158 -282 -29 -355 50 -29 143 -31 194 -5 30
14 80 72 80 91 0 17 -78 4 -105 -17 -22 -18 -39 -22 -73 -20 -47 3 -72 25 -87
76 l-6 22 142 0 142 0 -7 53 c-8 63 -48 125 -96 149 -39 19 -110 22 -155 6z
m130 -83 c14 -13 25 -33 25 -45 0 -19 -6 -20 -91 -20 -89 0 -90 0 -84 23 21
68 102 91 150 42z"/>
<path d="M3733 2101 c-18 -12 -33 -25 -33 -31 0 -5 -4 -10 -10 -10 -5 0 -10
11 -10 25 0 23 -4 25 -45 25 l-45 0 0 -185 0 -185 50 0 50 0 0 120 c0 158 15
190 89 190 55 0 66 -27 69 -176 l4 -134 44 0 45 0 -3 160 c-3 158 -3 160 -30
187 -37 37 -127 44 -175 14z"/>
<path d="M4260 2091 c19 -37 130 -344 130 -362 0 -28 -28 -49 -66 -49 -33 0
-34 -1 -34 -40 l0 -40 45 0 c61 0 110 22 128 57 8 15 33 80 56 143 24 63 58
154 77 203 19 48 34 92 34 97 0 6 -21 10 -47 10 l-48 0 -40 -126 c-21 -69 -42
-127 -46 -130 -4 -2 -27 54 -50 126 l-43 130 -54 0 c-49 0 -52 -1 -42 -19z"/>
</g>
</svg>
